<svg id="Capa_1" enable-background="new 0 0 511.505 511.505" height="512" viewBox="0 0 511.505 511.505" width="512" xmlns="http://www.w3.org/2000/svg"><g><g><path d="m258.717 23.436c-35.743 0-64.994 28.484-64.994 64.226 0 .004-1.438 2.003-.533 3.609 2.825 5.012 8.988 15.933 11.826 20.961.741 1.314 3.256 1.225 3.424 1.523 20.888 1.3 39.578 10.701 52.97 25.102-.142.152 20.505-24.792 56.811-25.234 3.351-7.817 5.213-16.425 5.213-25.469.002-35.742-28.974-64.718-64.717-64.718z" fill="#b0ef9a"/><path d="m266.077 251.218 3.801 3h98.875l3.903-3c15.873-14.472 25.837-35.315 25.837-58.487 0-43.706-35.431-79.136-79.136-79.136s-79.136 35.431-79.136 79.136c-.001 23.179 9.974 44.017 25.856 58.487z" fill="#f07281"/><path d="m240.22 192.731c0-20.817 8.05-39.746 21.191-53.874-14.449-15.538-35.066-25.263-57.958-25.263-43.706 0-79.136 35.431-79.136 79.136 0 23.179 9.975 44.018 25.857 58.487l6.079 3h95l5.5-3c.424-.386 2.943-1.346 6.59-2.616-14.283-14.31-23.123-34.052-23.123-55.87z" fill="#fff0ad"/><path d="m161.85 281.218v40c1.61 22 24.346 24.25 28.571 0 1.364-20.666 25.553-23.75 28.571 0 1.61 22 24.346 24.25 28.572 0 1.364-20.666 25.553-23.75 28.571 0 1.61 22 24.346 24.25 28.572 0 1.364-20.666 25.553-23.75 28.572 0 1.609 22 24.346 24.25 28.571 0v-40z" fill="#e19974"/><g fill="#fedba6"><path d="m361.85 281.721.062-.501h-.062z"/><path d="m333.278 321.218c-3.018-23.75-27.208-20.666-28.572 0-4.225 24.25-26.962 22-28.572 0-3.018-23.75-27.208-20.666-28.571 0-4.225 24.25-26.962 22-28.572 0-3.018-23.75-27.208-20.666-28.572 0-2.849 16.352-14.109 20.639-21.639 14.962l2.364 18.908c.438 3.503 3.416 6.132 6.946 6.132h167.641c3.53 0 6.508-2.629 6.946-6.132l2.49-19.921c-8.27 7.637-20.713 2.121-21.889-13.949z"/></g><g fill="#fedba6"><path d="m361.85 281.721.062-.501h-.062z"/><path d="m355.174 335.163-2.49 19.93c-.44 3.5-3.42 6.13-6.95 6.13h-167.64c-3.53 0-6.51-2.63-6.95-6.13l-2.36-18.91c7.53 5.67 18.79 1.39 21.64-14.96.71-10.72 7.55-16.71 14.4-16.68 6.35.03 12.71 5.25 14.17 16.68 1.61 22 24.35 24.25 28.57 0 1.36-20.67 25.55-23.75 28.57 0 1.61 22 24.35 24.25 28.57 0 1.37-20.67 25.56-23.75 28.57 0 1.18 16.07 13.62 21.58 21.9 13.94z"/></g><path d="m309.945 212.38c-10.785 0-19.697-8.661-19.724-19.445 0-.068 0-.136 0-.203 0-34.966 22.687-64.614 54.136-75.082-7.861-2.616-16.26-4.054-25-4.054-43.706 0-79.136 35.431-79.136 79.136 0 6.785.861 13.366 2.468 19.649v.001c.725 2.835 1.604 5.609 2.627 8.312 4.128 10.827 10.602 20.707 18.913 28.78.608.591 1.222 1.175 1.849 1.746h50 56.579c11.226-10.235 19.491-23.66 23.371-38.839h-86.083z" fill="#eb5569"/><path d="m322.411 99.551h-62.903c-5.614 0-10.795-3.031-13.553-7.921-.026-.046-.051-.091-.076-.136-1.514-2.685-2.201-5.757-1.964-8.831 1.905-24.653 17.782-45.209 39.684-54.263-7.661-3.194-16.064-4.964-24.882-4.964-35.743 0-64.994 28.484-64.994 64.226 0 .009 3.25 5.771 6.701 11.888 2.466 4.371 5.032 8.917 6.593 11.682.739 1.309 1.256 2.225 1.424 2.523 20.888 1.3 39.578 10.701 52.97 25.102-.003.004.016-.02.036-.044.007-.008.016-.019.025-.03.034-.041.082-.096.146-.17 6.238-7.123 14.52-12.781 22.96-16.926.607-.298 1.221-.594 1.85-.883h.001c8.59-3.953 19.256-7.027 31.791-7.179 1.911-4.456 3.318-9.173 4.191-14.074z" fill="#9be27d"/><path d="m203.456 113.659c1.688 0 3.362.059 5.023.163l-20.905-36.975-34.641 20 14.669 25.407c10.767-5.483 22.943-8.595 35.854-8.595z" fill="#fedba6"/><path d="m242.684 212.38h-48.643c-10.785 0-19.697-8.661-19.724-19.445 0-.068 0-.136 0-.203 0-34.975 22.699-64.631 54.162-75.091-8.842-2.947-18.377-4.381-28.3-3.979-40.818 1.652-73.986 34.696-75.784 75.507-.491 11.138 1.333 21.789 5.016 31.526.007.018.013.035.02.052.674 1.777 1.41 3.523 2.205 5.236 4.414 9.526 10.778 18.166 18.537 25.236h50 56.579c.424-.386 2.943-1.346 6.59-2.616-9.841-9.862-17.096-22.303-20.658-36.223z" fill="#ffde89"/><path d="m218.094 361.223h-40c-3.53 0-6.51-2.63-6.95-6.13l-2.36-18.91c7.53 5.67 18.79 1.39 21.64-14.96.71-10.72 7.55-16.71 14.4-16.68l6.32 50.55c.44 3.5 3.42 6.13 6.95 6.13z" fill="#fece85"/><path d="m140.254 49.527h40v40h-40z" fill="#e19974" transform="matrix(.866 -.5 .5 .866 -13.294 89.442)"/><path d="m167.575 42.206-34.641 20-16.5-28.579c-1.933-3.348-.786-7.629 2.562-9.562l22.517-13c3.348-1.933 7.629-.786 9.562 2.562z" fill="#fedba6"/><path d="m369.998 281.218h-220c-8.284 0-15-6.716-15-15 0-8.284 6.716-15 15-15h220c8.284 0 15 6.716 15 15 0 8.285-6.716 15-15 15z" fill="#e19974"/><path d="m315.962 504.002h-108.124c-3.614 0-6.634-2.752-6.97-6.35l-12.718-136.43h147.5l-12.718 136.43c-.336 3.598-3.356 6.35-6.97 6.35z" fill="#fedba6"/><path d="m335.65 361.222h-117.5-30l12.718 136.43c.335 3.599 3.356 6.35 6.97 6.35h30c-3.614 0-6.634-2.752-6.97-6.35l-7.798-83.647c-1.64-17.592 12.202-32.785 29.87-32.785h80.845z" fill="#fece85"/><g fill="#dc8758"><path d="m288.992 321.218c-1.969-15.491-12.942-19.559-20.715-14.786 3.812 2.43 6.901 7.254 7.858 14.786 1.099 15.021 12.044 20.826 20.225 15.285-3.851-2.658-6.822-7.835-7.368-15.285z"/><path d="m346.135 321.218c-1.969-15.491-12.941-19.559-20.715-14.786 3.813 2.43 6.901 7.254 7.858 14.786 1.099 15.021 12.044 20.826 20.224 15.285-3.851-2.658-6.822-7.835-7.367-15.285z"/><path d="m161.85 281.218v10 30c1.61 22 24.346 24.25 28.572 0 1.364-20.666 25.553-23.75 28.571 0 1.099 15.021 12.044 20.826 20.225 15.285-3.851-2.658-6.822-7.835-7.367-15.285v-10c0-11.046 8.954-20 20-20h110v-10z"/></g></g><g><path d="m189.559 145.011h-15c-4.143 0-7.5 3.358-7.5 7.5s3.357 7.5 7.5 7.5h15c4.143 0 7.5-3.358 7.5-7.5s-3.357-7.5-7.5-7.5z"/><path d="m146.89 199.88c0 4.142 3.357 7.5 7.5 7.5h15c4.143 0 7.5-3.358 7.5-7.5s-3.357-7.5-7.5-7.5h-15c-4.143 0-7.5 3.358-7.5 7.5z"/><path d="m214.059 175.378h-15c-4.143 0-7.5 3.358-7.5 7.5s3.357 7.5 7.5 7.5h15c4.143 0 7.5-3.358 7.5-7.5s-3.357-7.5-7.5-7.5z"/><path d="m281.39 166.38h15c4.143 0 7.5-3.358 7.5-7.5s-3.357-7.5-7.5-7.5h-15c-4.143 0-7.5 3.358-7.5 7.5s3.357 7.5 7.5 7.5z"/><path d="m302.059 183.927c-4.143 0-7.5 3.358-7.5 7.5s3.357 7.5 7.5 7.5h15c4.143 0 7.5-3.358 7.5-7.5s-3.357-7.5-7.5-7.5z"/><path d="m202.89 221.402c0 4.142 3.357 7.5 7.5 7.5h15c4.143 0 7.5-3.358 7.5-7.5s-3.357-7.5-7.5-7.5h-15c-4.143 0-7.5 3.358-7.5 7.5z"/><path d="m288.89 207.38h-15c-4.143 0-7.5 3.358-7.5 7.5s3.357 7.5 7.5 7.5h15c4.143 0 7.5-3.358 7.5-7.5s-3.357-7.5-7.5-7.5z"/><path d="m349.14 219.88h15c4.143 0 7.5-3.358 7.5-7.5s-3.357-7.5-7.5-7.5h-15c-4.143 0-7.5 3.358-7.5 7.5s3.357 7.5 7.5 7.5z"/><path d="m258.753 30.934c11.254 0 22.157 3.256 31.531 9.417 3.461 2.275 8.112 1.313 10.387-2.148s1.313-8.112-2.148-10.387c-11.828-7.773-25.58-11.882-39.77-11.882-32.18 0-59.515 20.863-68.955 49.632l-15.688-27.174-20-34.641c-2.072-3.587-6.659-4.817-10.245-2.745l-34.641 20c-3.587 2.071-4.816 6.658-2.745 10.245l20 34.641 20 34.641 10.885 18.853c-21.551 13.556-36.81 36.375-39.92 63.287-.476 4.115 2.475 7.836 6.59 8.311.292.034.582.05.87.05 3.757 0 6.999-2.817 7.44-6.64 4.17-36.087 34.757-63.301 71.149-63.301 17.622 0 34.669 6.587 47.724 18.24-11.558 14.725-18.457 33.27-18.457 53.398 0 18.42 5.93 36.282 16.631 50.988h-96.196c-8.402-8.281-14.64-18.5-18.119-29.717-1.227-3.956-5.427-6.17-9.384-4.942-3.957 1.227-6.17 5.428-4.943 9.385 3.357 10.826 8.84 20.876 16.072 29.582-5.62 4.095-9.282 10.722-9.282 18.192 0 12.407 10.094 22.5 22.5 22.5h4.352v32.5c0 .183.007.365.02.547.587 8.021 3.428 13.978 7.244 17.987l2.796 22.395c.469 3.753 3.659 6.571 7.442 6.571h9.416l3.777 40.516c.003.034.006.068.01.103l4.481 48.07c.003.031.005.062.009.093l4.4 47.198c.359 3.855 3.596 6.804 7.468 6.804h60.4c.013 0 .026.002.039.002s.026-.002.039-.002h60.403c3.872 0 7.108-2.948 7.468-6.804l4.402-47.235c0-.001 0-.003 0-.004l.728-7.811c.384-4.124-2.648-7.779-6.772-8.163-4.114-.377-7.778 2.648-8.163 6.772l-.087.938h-50.521v-33.167h53.635c-.132 3.937 2.82 7.343 6.792 7.712 4.118.38 7.778-2.649 8.162-6.773l.629-6.755c.125-.542.197-1.104.197-1.684 0-.093-.011-.184-.014-.277l3.684-39.532h9.416c3.782 0 6.973-2.816 7.442-6.569l2.949-23.564c3.231-3.795 5.779-9.099 6.995-16.08.074-.425.111-.856.111-1.288v-32.5h.648c12.406 0 22.5-10.093 22.5-22.5 0-6.7-2.947-12.722-7.609-16.847 13.509-15.651 21.104-35.788 21.104-56.641 0-44.637-33.933-81.493-77.357-86.138 1.524-5.892 2.3-11.967 2.3-18.16 0-8.306-1.394-16.438-4.144-24.172-1.388-3.903-5.679-5.94-9.578-4.555-3.903 1.388-5.942 5.676-4.555 9.579 2.174 6.116 3.276 12.559 3.276 19.148 0 6.15-.97 12.145-2.856 17.891-19.785 1.423-37.749 9.518-51.651 22.043-13.439-12.09-30.42-19.708-48.361-21.728l-11.796-20.866c1.019-30.407 26.386-54.839 57.444-54.839zm-113.883-13.187 12.5 21.65-21.65 12.5-12.5-21.65zm20 34.64 12.5 21.651-21.65 12.5-12.5-21.651zm-1.651 47.141 21.59-12.465 2.35 4.157c.01.018.02.036.03.054l8.575 15.169c-8.772.777-17.184 2.874-25.042 6.082zm33.154 269.196h58.017v32.305h-55.005zm8.9 95.472h49.117v32.308h-46.105zm113.236 0-3.011 32.308h-46.108v-32.308zm-64.119-15h-50.515l-3.092-33.167h53.607zm15-80.472h58.021l-3.01 32.305h-55.01v-32.305zm-7.49-15.004c-.003 0-.006 0-.01 0s-.006 0-.01 0h-83.366l-.968-7.755c8.624-.936 17.647-8.204 20.304-23.458.046-.263.077-.528.095-.794.411-6.226 3.701-9.576 6.738-9.668.044-.001.087-.002.13-.002 3.31 0 5.944 3.876 6.757 9.946 1.251 15.896 11.396 23.617 20.331 24.062 9.394.466 20.145-6.632 23.092-23.544.046-.263.077-.528.095-.794.411-6.226 3.701-9.576 6.739-9.668 3.321-.103 6.063 3.794 6.886 9.944 1.251 15.896 11.396 23.617 20.332 24.062.288.014.576.021.866.021 9.158 0 19.369-7.173 22.225-23.566.046-.262.077-.527.095-.793.411-6.226 3.702-9.577 6.739-9.668.044-.001.087-.002.13-.002 3.31 0 5.944 3.876 6.757 9.946 1.251 15.896 11.396 23.617 20.331 24.062.015.001.03 0 .045.001l-.96 7.668zm92.49-33.183c-.884 4.552-2.518 7.527-4.247 9.121-.037.033-.072.069-.108.103-1.053.934-2.136 1.357-3.102 1.308-2.68-.133-5.647-3.748-6.134-10.397-.01-.133-.023-.266-.04-.398-2.049-16.121-12.266-23.23-21.68-23.23-.188 0-.376.003-.563.008-9.708.294-20.048 8.364-21.221 23.23-1.409 7.595-4.892 10.912-7.505 10.788-2.681-.133-5.648-3.748-6.135-10.397-.01-.133-.023-.266-.04-.398-2.09-16.443-12.681-23.488-22.243-23.222-9.708.294-20.048 8.363-21.22 23.229-1.41 7.595-4.866 10.912-7.506 10.788-2.68-.133-5.647-3.748-6.134-10.397-.01-.133-.023-.266-.04-.398-2.089-16.443-12.705-23.488-22.243-23.222-9.708.294-20.048 8.364-21.22 23.23-1.409 7.595-4.894 10.912-7.506 10.788-.688-.034-1.395-.303-2.074-.79-.078-.062-.156-.124-.237-.183-1.833-1.466-3.418-4.568-3.803-9.169v-32.208h185v31.816zm15.649-46.818h-8.148-200-11.852c-4.136 0-7.5-3.364-7.5-7.5s3.364-7.5 7.5-7.5h.08c.032 0 .063.004.094.004h106.58c.032 0 .063-.004.094-.004h9.229 103.922c4.136 0 7.5 3.364 7.5 7.5s-3.364 7.5-7.499 7.5zm20.994-80.987c0 19.146-7.74 37.569-21.327 50.988h-100.601c-13.599-13.42-21.345-31.843-21.345-50.988 0-39.5 32.136-71.636 71.636-71.636 39.501-.001 71.637 32.135 71.637 71.636z"/></g></g></svg>