<svg id="Filledoutline" height="512" viewBox="0 0 512 512" width="512" xmlns="http://www.w3.org/2000/svg"><path d="m456 304c0 24-12.17 36.62-12.17 69.08s12.17 34.92 12.17 58.92-8 48-24 48-24-16-24-16-8 16-24 16-24-16-24-16-8 16-24 16a14.611 14.611 0 0 1 -3.78-.48c-13.48-3.47-20.22-25.49-20.22-47.52 0-24 12.17-26.46 12.17-58.92s-12.17-45.08-12.17-69.08v-112c0-17.34 7.39-31.3 17.24-47.96 3.78-6.39 7.92-13.19 12.15-20.72 15.24-27.16 26.61-67.32 26.61-67.32v-16h32v16s11.37 40.16 26.61 67.32 29.39 44.68 29.39 68.68z" fill="#f8bc1e"/><path d="m360 24h48v32h-48z" fill="#f79726"/><path d="m337.93 337.67c-3.14 10.44-6.1 20.3-6.1 35.41 0 14.37 2.61 20.87 5.63 28.4 3.06 7.66 6.54 16.34 6.54 30.52 0 19.81-4.31 36.25-11.78 47.52-13.48-3.47-20.22-25.49-20.22-47.52 0-24 12.17-26.46 12.17-58.92s-12.17-45.08-12.17-69.08v-112c0-17.34 7.39-31.3 17.24-47.96 8.47 15.11 14.76 29.72 14.76 47.96v112c0 13.45-3.09 23.73-6.07 33.67z" fill="#f5a922"/><path d="m312 192h144v112h-144z" fill="#f79726"/><circle cx="384" cy="248" fill="#e3e4e2" r="24"/><path d="m312 192h32v112h-32z" fill="#e8732d"/><path d="m56 304c0 24 12.17 36.62 12.17 69.08s-12.17 34.92-12.17 58.92 8 48 24 48 24-16 24-16 8 16 24 16 24-16 24-16 8 16 24 16a14.611 14.611 0 0 0 3.78-.48c13.48-3.47 20.22-25.49 20.22-47.52 0-24-12.17-26.46-12.17-58.92s12.17-45.08 12.17-69.08v-112c0-17.34-7.39-31.3-17.24-47.96-3.78-6.39-7.92-13.19-12.15-20.72-15.24-27.16-26.61-67.32-26.61-67.32v-16h-32v16s-11.37 40.16-26.61 67.32-29.39 44.68-29.39 68.68z" fill="#85bb40"/><path d="m104 24h48v32h-48z" fill="#7b9e3e" transform="matrix(-1 0 0 -1 256 80)"/><path d="m174.07 337.67c3.14 10.44 6.1 20.3 6.1 35.41 0 14.37-2.61 20.87-5.63 28.4-3.06 7.66-6.54 16.34-6.54 30.52 0 19.81 4.31 36.25 11.78 47.52 13.48-3.47 20.22-25.49 20.22-47.52 0-24-12.17-26.46-12.17-58.92s12.17-45.08 12.17-69.08v-112c0-17.34-7.39-31.3-17.24-47.96-8.47 15.11-14.76 29.72-14.76 47.96v112c0 13.45 3.09 23.73 6.07 33.67z" fill="#85b140"/><path d="m56 192h144v112h-144z" fill="#7b9e3e"/><circle cx="128" cy="248" fill="#e3e4e2" r="24"/><path d="m168 192h32v112h-32z" fill="#6f8f3c" transform="matrix(-1 0 0 -1 368 496)"/><path d="m272 56s11.371 40.157 26.609 67.319 29.391 44.681 29.391 68.681v112c0 24-12.166 36.617-12.166 69.079s12.166 34.921 12.166 58.921-8 48-24 48-24-16-24-16-8 16-24 16-24-16-24-16-8 16-24 16-24-24-24-48 12.166-26.459 12.166-58.921-12.166-45.079-12.166-69.079v-112c0-24 14.154-41.518 29.391-68.681s26.609-67.319 26.609-67.319v-16h32z" fill="#724e26"/><path d="m232 24h48v32h-48z" fill="#eb5849"/><path d="m184 192h144v112h-144z" fill="#eb5849"/><circle cx="256" cy="248" fill="#e3e4e2" r="24"/><path d="m305.586 119.405c-10.138-18.071-18.635-42.512-22.912-55.873a8 8 0 0 0 5.326-7.532v-32a8 8 0 0 0 -8-8h-48a8 8 0 0 0 -8 8v32a8 8 0 0 0 5.328 7.533c-4.273 13.353-12.763 37.779-22.914 55.872-3.083 5.5-6.115 10.581-9.047 15.5-11.467 19.224-21.367 35.828-21.367 57.095v112c0 12.271 2.915 21.981 5.734 31.373 3.162 10.534 6.432 21.426 6.432 37.706 0 15.911-3.01 23.424-6.195 31.378-2.936 7.328-5.971 14.904-5.971 27.543 0 13.67 2.376 26.543 6.689 36.249 7.638 17.185 19.137 19.751 25.311 19.751 10.913 0 18.862-5.441 24-10.711 5.138 5.27 13.087 10.711 24 10.711s18.862-5.441 24-10.711c5.138 5.27 13.087 10.711 24 10.711 6.174 0 17.673-2.566 25.311-19.751 4.313-9.706 6.689-22.579 6.689-36.249 0-12.639-3.035-20.215-5.971-27.543-3.185-7.954-6.195-15.467-6.195-31.378 0-16.28 3.27-27.172 6.432-37.706 2.819-9.392 5.734-19.102 5.734-31.373v-112c0-21.267-9.9-37.871-21.367-57.1-2.933-4.914-5.964-10-9.047-15.495zm-65.586-87.405h32v16h-32zm-28.891 111.1c2.986-5.007 6.073-10.184 9.26-15.865 12.2-21.748 21.809-50.924 25.594-63.233h20.074c3.785 12.309 13.394 41.485 25.594 63.233 3.187 5.681 6.274 10.858 9.26 15.865 9.286 15.572 16.395 27.533 18.472 40.9h-126.726c2.077-13.369 9.186-25.33 18.472-40.9zm-19.109 152.9v-96h128v96zm112 176c-10.738 0-16.808-11.507-16.845-11.578a7.982 7.982 0 0 0 -14.288-.045c-.059.116-6.129 11.623-16.867 11.623s-16.808-11.507-16.845-11.578a8 8 0 0 0 -14.31 0c-.058.116-6.09 11.578-16.845 11.578-8.822 0-16-17.944-16-40 0-9.553 2.128-14.866 4.823-21.593 3.442-8.593 7.343-18.331 7.343-37.328 0-18.63-3.775-31.208-7.107-42.306-1.944-6.477-3.683-12.332-4.522-18.773h126.926c-.839 6.441-2.578 12.3-4.522 18.773-3.332 11.1-7.107 23.676-7.107 42.306 0 19 3.9 28.735 7.343 37.328 2.695 6.727 4.823 12.04 4.823 21.593 0 22.056-7.178 40-16 40z"/><path d="m256 216a32 32 0 1 0 32 32 32.036 32.036 0 0 0 -32-32zm0 48a16 16 0 1 1 16-16 16.019 16.019 0 0 1 -16 16z"/><path d="m464 304v-112c0-21.267-9.9-37.871-21.367-57.1-2.932-4.917-5.964-10-9.047-15.5-10.138-18.071-18.635-42.512-22.912-55.873a8 8 0 0 0 5.326-7.527v-32a8 8 0 0 0 -8-8h-48a8 8 0 0 0 -8 8v32a8 8 0 0 0 5.326 7.532c-4.277 13.361-12.774 37.8-22.911 55.872-1.57 2.8-3.256 5.722-5.307 9.2l13.784 8.125c2.109-3.579 3.849-6.6 5.477-9.5 12.2-21.748 21.809-50.924 25.594-63.233h20.074c3.785 12.309 13.394 41.485 25.594 63.233 3.187 5.681 6.274 10.858 9.26 15.865 9.286 15.572 16.395 27.533 18.472 40.9h-95.363v16h96v96h-96v16h95.463c-.839 6.441-2.578 12.3-4.522 18.773-3.332 11.1-7.107 23.676-7.107 42.306 0 19 3.9 28.735 7.343 37.328 2.695 6.733 4.823 12.046 4.823 21.599 0 22.056-7.178 40-16 40-10.738 0-16.808-11.507-16.845-11.578a7.982 7.982 0 0 0 -14.288-.045c-.059.116-6.129 11.623-16.867 11.623s-16.808-11.507-16.845-11.578a8 8 0 0 0 -14.31 0c-.039.078-4.244 7.948-11.6 10.647l5.512 15.022a36.034 36.034 0 0 0 13.266-8.78c5.139 5.263 13.077 10.689 23.977 10.689 10.913 0 18.862-5.441 24-10.711 5.138 5.27 13.087 10.711 24 10.711 6.174 0 17.673-2.566 25.311-19.751 4.313-9.706 6.689-22.579 6.689-36.249 0-12.639-3.035-20.215-5.971-27.543-3.185-7.954-6.195-15.467-6.195-31.378 0-16.28 3.27-27.172 6.432-37.706 2.819-9.392 5.734-19.102 5.734-31.373zm-96-272h32v16h-32z"/><path d="m416 248a32 32 0 1 0 -32 32 32.036 32.036 0 0 0 32-32zm-48 0a16 16 0 1 1 16 16 16.019 16.019 0 0 1 -16-16z"/><path d="m159.155 460.423a8 8 0 0 0 -14.31 0c-.058.115-6.09 11.577-16.845 11.577-10.738 0-16.808-11.507-16.845-11.578a7.982 7.982 0 0 0 -14.288-.045c-.059.116-6.129 11.623-16.867 11.623-8.822 0-16-17.944-16-40 0-9.553 2.128-14.866 4.823-21.593 3.442-8.593 7.343-18.331 7.343-37.328 0-18.63-3.775-31.208-7.107-42.306-1.944-6.473-3.683-12.332-4.522-18.773h95.463v-16h-96v-96h96v-16h-95.363c2.077-13.369 9.186-25.33 18.472-40.9 2.986-5.007 6.073-10.184 9.26-15.865 12.2-21.748 21.809-50.924 25.594-63.233h20.074c3.785 12.309 13.394 41.485 25.6 63.234 1.627 2.9 3.367 5.916 5.476 9.5l13.784-8.125c-2.051-3.478-3.737-6.4-5.306-9.2-10.138-18.071-18.635-42.512-22.912-55.873a8 8 0 0 0 5.321-7.538v-32a8 8 0 0 0 -8-8h-48a8 8 0 0 0 -8 8v32a8 8 0 0 0 5.326 7.532c-4.277 13.361-12.774 37.8-22.912 55.873-3.083 5.5-6.115 10.581-9.047 15.5-11.467 19.224-21.367 35.828-21.367 57.095v112c0 12.271 2.915 21.981 5.734 31.373 3.162 10.534 6.432 21.426 6.432 37.706 0 15.911-3.01 23.424-6.195 31.378-2.936 7.328-5.971 14.904-5.971 27.543 0 13.67 2.376 26.543 6.689 36.249 7.638 17.185 19.137 19.751 25.311 19.751 10.913 0 18.862-5.441 24-10.711 5.138 5.27 13.087 10.711 24 10.711 10.9 0 18.838-5.426 23.978-10.688a36.034 36.034 0 0 0 13.266 8.78l5.512-15.022c-7.44-2.729-11.582-10.614-11.601-10.647zm-47.155-428.423h32v16h-32z"/><path d="m96 248a32 32 0 1 0 32-32 32.036 32.036 0 0 0 -32 32zm48 0a16 16 0 1 1 -16-16 16.019 16.019 0 0 1 16 16z"/></svg>